<svg width="16" height="11" viewBox="0 0 16 11" fill="none" xmlns="http://www.w3.org/2000/svg">
<path d="M0 5.0625V6.0625C4 12.0625 12 12.0625 16 6.0625V5.0625C12 -0.9375 4 -0.9375 0 5.0625ZM8 9.5625C5.79063 9.5625 4 7.77187 4 5.5625C4 3.35313 5.79063 1.5625 8 1.5625C10.2094 1.5625 12 3.35313 12 5.5625C12 7.77187 10.2094 9.5625 8 9.5625ZM8 3.3125C8 3.05312 8.05312 2.80937 8.13437 2.575C8.0875 2.57187 8.04688 2.5625 8 2.5625C6.34375 2.5625 5 3.90625 5 5.5625C5 7.21875 6.34375 8.5625 8 8.5625C9.65625 8.5625 11 7.21875 11 5.5625C11 5.51562 10.9875 5.475 10.9875 5.42812C10.7563 5.50937 10.5094 5.5625 10.25 5.5625C9.00625 5.5625 8 4.55625 8 3.3125Z" fill="#D2D1DB"/>
</svg>
