<svg width="16" height="16" viewBox="0 0 16 16" fill="none" xmlns="http://www.w3.org/2000/svg">
<path d="M7.53991 5.83637C5.77098 5.85886 0 6.08182 0 8.00017C0 10.0624 6.66406 10.1668 8.0001 10.1668C9.33598 10.1668 16 10.0624 16 8.00017C16 7.08568 14.7976 6.66691 13.8933 6.43154C12.907 6.17476 11.5747 5.98857 10.1037 5.89765C10.1277 6.28818 10.1446 6.68956 10.155 7.09763C12.8431 7.2728 14.2648 7.72616 14.7019 8.00172C14.1099 8.38419 11.8276 8.97131 8.0001 8.97131C4.16576 8.97131 1.88218 8.38202 1.29492 7.99971C1.85239 7.63385 3.9414 7.07778 7.55511 7.03153C7.88528 7.0275 8.14951 6.75644 8.14517 6.42627C8.14098 6.09889 7.87427 5.83621 7.54767 5.83621C7.54502 5.83621 7.54255 5.83621 7.53991 5.83637Z" fill="#8774E1"/>
<path d="M5.83337 8.00017C5.83337 9.33591 5.9378 16 8.00011 16C8.91413 16 9.3329 14.7985 9.56827 13.8946C9.8252 12.9078 10.0115 11.5742 10.1026 10.1021C9.65964 10.1286 9.25004 10.1446 8.90265 10.154C8.72747 12.8428 8.27395 14.2649 7.9984 14.7022C7.61595 14.1099 7.02868 11.8276 7.02868 8.00017C7.02868 4.16875 7.61719 1.88563 7.9995 1.29634C8.36658 1.86809 8.93864 4.04772 8.96999 7.69917C8.97277 8.02764 9.23979 8.29187 9.56765 8.29187H9.57292C9.90293 8.28891 10.1683 8.01894 10.1655 7.68908C10.1487 5.73643 9.97338 3.90684 9.67175 2.53758C9.29037 0.806353 8.75914 0 8.00011 0C5.9378 0 5.83337 6.66413 5.83337 8.00017Z" fill="#8774E1"/>
</svg>
