<svg width="83" height="26" viewBox="0 0 83 26" fill="none" xmlns="http://www.w3.org/2000/svg">
<g clip-path="url(#clip0_187_33)">
<path d="M58.7724 14.9389C58.7724 15.7491 58.1091 16.4076 57.2931 16.4076H54.7966C53.9805 16.4076 53.3172 15.7491 53.3172 14.9389V6.42505H50.2432V14.8488C50.2432 17.3931 52.3243 19.4587 54.8874 19.4587H57.207C59.7701 19.4587 61.8509 17.3978 61.8509 14.8488V6.42029H58.7772V14.9389H58.7724Z" fill="#8E9AFE"/>
<path d="M68.0941 13.1243V10.9402C68.0941 10.13 68.7574 9.47147 69.5738 9.47147H72.0699C72.886 9.47147 73.5497 10.13 73.5497 10.9402V13.1243H68.0941ZM71.9795 6.41559H69.6595C67.0967 6.41559 65.0156 8.48127 65.0156 11.0255V19.454H68.0893V16.1707H73.5449V19.4446H76.6186V11.0207C76.6234 8.48127 74.547 6.41559 71.9795 6.41559Z" fill="#8E9AFE"/>
<path d="M82.8662 6.42029H79.7925V19.4587H82.8662V6.42029Z" fill="#8E9AFE"/>
<path d="M43.4515 11.4092H39.0892C38.5497 11.4092 38.1106 10.9734 38.1106 10.438C38.1106 9.90263 38.5497 9.46674 39.0892 9.46674H46.6399V6.41559H39.0892C36.8506 6.41559 35.0369 8.21597 35.0369 10.438C35.0369 12.66 36.8506 14.4604 39.0892 14.4604H43.4372C43.9811 14.4604 44.425 14.901 44.425 15.4411C44.425 15.9812 43.9811 16.4218 43.4372 16.4218H35.4665V19.473H43.4467C45.6854 19.473 47.4988 17.6726 47.4988 15.4506V15.4269C47.5039 13.2144 45.6901 11.4092 43.4515 11.4092Z" fill="#8E9AFE"/>
<path d="M12.3937 9.24854C8.66693 9.2949 0 9.7474 0 12.9372C0 16.3644 10.0552 16.6311 13.1371 16.6311C16.2191 16.6311 26.2743 16.3644 26.2743 12.9372C26.2743 11.3082 24.2269 10.5949 22.6869 10.1999C21.1329 9.80193 19.0901 9.51374 16.7705 9.36206C16.8232 10.1469 16.859 10.9584 16.8759 11.7874C20.3281 12.03 22.386 12.554 23.3332 12.9417C21.9521 13.5062 18.4544 14.2165 13.1371 14.2165C7.79693 14.2165 4.29658 13.5014 2.9264 12.9357C4.22276 12.3942 7.42221 11.7258 12.4246 11.6624C12.7522 11.6583 13.0584 11.5289 13.287 11.2981C13.5156 11.0675 13.6392 10.7626 13.6347 10.4399C13.6264 9.78302 13.0769 9.24854 12.3937 9.24854Z" fill="#8E9AFE"/>
<path d="M9.38647 12.9372C9.38647 15.9723 9.6569 25.8748 13.137 25.8748C14.7915 25.8748 15.5153 23.8593 15.9157 22.3438C16.3146 20.8368 16.6144 18.7742 16.7669 16.5183C15.857 16.5751 15.0125 16.6044 14.3052 16.6185C14.0586 20.0193 13.526 22.0452 13.1328 22.9784C12.5596 21.6183 11.838 18.1729 11.838 12.9372C11.838 7.69185 12.5611 4.24725 13.1351 2.89085C13.6861 4.20609 14.3904 7.49306 14.4341 12.4628C14.4397 13.1223 14.9896 13.6598 15.6705 13.6598C16.3458 13.6534 16.8912 13.1075 16.8855 12.4417C16.8584 9.33015 16.5737 6.41224 16.0848 4.225C15.44 1.34233 14.5034 0 13.137 0C9.6569 0 9.38647 9.90208 9.38647 12.9372Z" fill="#8E9AFE"/>
</g>
<defs>
<clipPath id="clip0_187_33">
<rect width="83" height="26" fill="white"/>
</clipPath>
</defs>
</svg>
