<svg width="30" height="30" viewBox="0 0 30 30" fill="none" xmlns="http://www.w3.org/2000/svg">
<path opacity="0.8" d="M14.6958 0.185913C22.7232 0.185913 29.2271 6.68982 29.2271 14.7172C29.2271 22.7445 22.7232 29.2484 14.6958 29.2484C6.66849 29.2484 0.164587 22.7445 0.164587 14.7172C0.164587 6.68982 6.66849 0.185913 14.6958 0.185913ZM14.6958 5.81091C11.8247 5.81091 9.53959 8.15466 9.53959 10.9672C9.53959 13.8383 11.8247 16.1234 14.6958 16.1234C17.5083 16.1234 19.8521 13.8383 19.8521 10.9672C19.8521 8.15466 17.5083 5.81091 14.6958 5.81091ZM14.6958 25.9672C18.0943 25.9672 21.1997 24.4437 23.2505 21.9828C22.1372 19.932 19.9693 18.4672 17.5083 18.4672C17.3326 18.4672 17.2154 18.5258 17.0396 18.5844C16.3365 18.8187 15.5161 18.9359 14.6958 18.9359C13.8169 18.9359 13.0552 18.8187 12.2935 18.5844C12.1177 18.5258 12.0005 18.4672 11.8833 18.4672C9.36381 18.4672 7.19584 19.932 6.08256 21.9828C8.13334 24.4437 11.2388 25.9672 14.6958 25.9672Z" fill="#4D61FC"/>
</svg>
