<svg width="31" height="24" viewBox="0 0 31 24" fill="none" xmlns="http://www.w3.org/2000/svg">
<path opacity="0.8" d="M24.8832 22.9672H19.9613C19.5511 22.9672 19.2582 22.6742 19.2582 22.264V19.9203C19.2582 19.5687 19.5511 19.2172 19.9613 19.2172H24.8832C25.8793 19.2172 26.7582 18.3969 26.7582 17.3422V6.09216C26.7582 5.09607 25.8793 4.21716 24.8832 4.21716H19.9613C19.5511 4.21716 19.2582 3.92419 19.2582 3.51404V1.17029C19.2582 0.818726 19.5511 0.467163 19.9613 0.467163H24.8832C27.9886 0.467163 30.5082 2.98669 30.5082 6.09216V17.3422C30.5082 20.4476 27.9886 22.9672 24.8832 22.9672ZM22.1293 11.1898C22.6566 11.7758 22.6566 12.6547 22.1293 13.182L12.2855 23.0258C11.4066 23.9047 9.88318 23.3187 9.88318 22.0297V16.4047H1.91443C1.09412 16.4047 0.508179 15.8187 0.508179 14.9984V9.37341C0.508179 8.61169 1.09412 7.96716 1.91443 7.96716H9.88318V2.34216C9.88318 1.11169 11.4066 0.467163 12.2855 1.34607L22.1293 11.1898Z" fill="#4D61FC"/>
</svg>
