<svg width="15" height="15" viewBox="0 0 15 15" fill="none" xmlns="http://www.w3.org/2000/svg">
<path d="M6.44568 1.56091L7.13318 0.873413C7.44568 0.592163 7.91443 0.592163 8.19568 0.873413L14.2894 6.93591C14.5707 7.24841 14.5707 7.71716 14.2894 7.99841L8.19568 14.0922C7.91443 14.3734 7.44568 14.3734 7.13318 14.0922L6.44568 13.4047C6.16443 13.0922 6.16443 12.6234 6.44568 12.3109L10.2269 8.71716H1.25818C0.820679 8.71716 0.508179 8.40466 0.508179 7.96716V6.96716C0.508179 6.56091 0.820679 6.21716 1.25818 6.21716H10.2269L6.44568 2.65466C6.16443 2.34216 6.13318 1.87341 6.44568 1.56091Z" fill="white"/>
</svg>
